<svg xmlns="http://www.w3.org/2000/svg" xmlns:xlink="http://www.w3.org/1999/xlink" version="1.1" x="0px" y="0px" viewBox="0 0 96 120" style="enable-background:new 0 0 96 96;" xml:space="preserve" fill="#FFF">
  <path d="M54.852,29.179h5.419v11.348c0,0.462,0.273,0.881,0.695,1.069c0.152,0.067,0.313,0.1,0.473,0.1  c0.285,0,0.566-0.104,0.785-0.303L75.69,29.179h8.929c2.143,0,3.887-1.744,3.887-3.887V6.887C88.506,4.744,86.762,3,84.619,3H54.852  c-2.143,0-3.887,1.744-3.887,3.887v18.406C50.965,27.436,52.709,29.179,54.852,29.179z M53.303,6.887  c0-0.854,0.695-1.549,1.549-1.549h29.767c0.854,0,1.549,0.695,1.549,1.549v18.406c0,0.854-0.695,1.549-1.549,1.549h-9.38  c-0.29,0-0.57,0.108-0.785,0.303L62.609,37.889V28.01c0-0.645-0.523-1.169-1.169-1.169h-6.588c-0.854,0-1.549-0.695-1.549-1.549  V6.887z M65.126,9.789c0.89-1.552,2.554-2.515,4.341-2.515c1.668,0,3.295,0.754,4.246,1.968c0.755,0.963,1.011,2.14,0.722,3.314  c-0.438,1.778-1.549,2.519-2.442,3.113c-0.516,0.344-0.962,0.641-1.321,1.121c-0.006,0.008-0.012,0.015-0.018,0.023  c-0.267,0.339-0.887,1.25-0.887,2.392c0,0.645-0.523,1.169-1.169,1.169c-0.645,0-1.169-0.523-1.169-1.169  c0-1.314,0.502-2.707,1.378-3.826c0.598-0.796,1.284-1.253,1.889-1.655c0.778-0.518,1.248-0.831,1.468-1.727  c0.119-0.481,0.023-0.911-0.292-1.313c-0.502-0.641-1.469-1.072-2.406-1.072c-0.952,0-1.839,0.514-2.313,1.341  c-0.321,0.56-1.035,0.754-1.596,0.432C64.998,11.063,64.804,10.348,65.126,9.789z M68.598,21.633c-1.074,0-1.949,0.874-1.949,1.949  c0,1.074,0.874,1.948,1.949,1.948c1.074,0,1.948-0.874,1.948-1.948C70.547,22.507,69.673,21.633,68.598,21.633z M68.598,23.97  c-0.215,0-0.389-0.174-0.389-0.389s0.175-0.389,0.389-0.389c0.215,0,0.389,0.175,0.389,0.389S68.813,23.97,68.598,23.97z   M91.389,73.062l-5.801-5.301c-0.477-0.436-1.216-0.402-1.651,0.074l-0.953,1.042l-5.211-4.762l-4.11-17.685  c-0.282-1.214-1.023-2.246-2.086-2.909c-1.063-0.662-2.316-0.872-3.53-0.589c-1.214,0.282-2.246,1.023-2.909,2.086  c-0.662,1.063-0.871,2.317-0.59,3.53l1.027,4.422l-10.713-9.791c-1.586-1.45-4.042-1.358-5.52,0.187l-4.462-4.078l4.496,0.626  c2.556,0.357,4.923-1.433,5.279-3.988c0.172-1.234-0.149-2.464-0.904-3.463c-0.755-0.999-1.85-1.644-3.084-1.816l-17.983-2.505  l-5.211-4.762l0.953-1.042c0.435-0.477,0.402-1.216-0.074-1.651l-5.801-5.301c-0.229-0.209-0.533-0.319-0.841-0.305  c-0.31,0.014-0.601,0.15-0.81,0.379L4.537,33.366c-0.209,0.229-0.319,0.531-0.305,0.841c0.014,0.31,0.15,0.601,0.379,0.81  l5.801,5.301c0.224,0.205,0.507,0.306,0.788,0.306c0.317,0,0.633-0.128,0.863-0.38l0.953-1.042l6.126,5.598l1.655,5.593  c0.06,0.204,0.175,0.388,0.332,0.531l13.735,12.552c0.777,0.71,1.789,1.078,2.844,1.028c1.057-0.047,2.031-0.502,2.741-1.279  c0.271-0.296,0.489-0.628,0.655-0.981c0.011,1.077,0.459,2.123,1.283,2.876l13.735,12.552c0.157,0.144,0.35,0.241,0.559,0.283  l5.719,1.146l6.126,5.599l-0.953,1.042c-0.209,0.229-0.319,0.531-0.305,0.841c0.014,0.31,0.15,0.601,0.379,0.81l5.801,5.301  C73.672,92.899,73.954,93,74.236,93c0.317,0,0.633-0.128,0.863-0.38l16.364-17.906c0.209-0.229,0.319-0.531,0.305-0.841  S91.618,73.271,91.389,73.062z M11.126,37.804L7.051,34.08l14.787-16.181l4.075,3.724L12.079,36.762c0,0,0,0,0,0c0,0,0,0,0,0  L11.126,37.804z M40.211,57.652c-0.004-0.004-0.009-0.008-0.013-0.012c-0.002-0.002-0.005-0.004-0.007-0.007l-5.915-5.405  c-0.477-0.435-1.216-0.402-1.651,0.074c-0.435,0.477-0.402,1.216,0.074,1.651l5.929,5.419c0.312,0.288,0.494,0.684,0.513,1.113  c0.02,0.433-0.129,0.846-0.418,1.162c-0.289,0.316-0.687,0.501-1.12,0.521c-0.43,0.02-0.846-0.129-1.162-0.418L22.946,49.418  l-1.655-5.593c-0.06-0.204-0.175-0.388-0.332-0.531l-6.366-5.818l11.305-12.371l5.479,5.007c0.174,0.159,0.393,0.262,0.627,0.295  l18.343,2.555c0.615,0.086,1.163,0.409,1.541,0.91c0.379,0.501,0.54,1.116,0.454,1.731c-0.178,1.278-1.365,2.175-2.641,1.996  l-8.208-1.143c-0.032-0.005-0.064-0.008-0.096-0.011c-0.167-0.013-0.329,0.012-0.479,0.066c-0.151,0.054-0.292,0.14-0.414,0.257  c-0.101,0.097-0.185,0.213-0.247,0.343v0c0,0.001-0.001,0.001-0.001,0.002c-0.062,0.132-0.098,0.273-0.108,0.415  c-0.012,0.167,0.012,0.329,0.066,0.478c0.054,0.15,0.139,0.291,0.256,0.413c0.022,0.023,0.045,0.045,0.068,0.066l8.244,7.534  c0.004,0.003,0.007,0.007,0.011,0.01l5.225,4.775c0.316,0.289,0.501,0.687,0.521,1.12c0.02,0.433-0.129,0.846-0.418,1.162  c-0.289,0.316-0.687,0.501-1.12,0.521c-0.429,0.019-0.838-0.126-1.153-0.409l-10.059-9.193c-0.477-0.436-1.216-0.402-1.651,0.074  c-0.205,0.224-0.306,0.507-0.306,0.789c0,0.317,0.128,0.632,0.38,0.863l10.05,9.184c0.005,0.004,0.009,0.008,0.014,0.012l3.43,3.134  c0.492,0.449,0.641,1.135,0.434,1.728c-0.002,0.006-0.004,0.012-0.007,0.017c-0.07,0.193-0.178,0.377-0.325,0.538  c-0.289,0.316-0.687,0.501-1.12,0.521c-0.434,0.02-0.846-0.129-1.162-0.418L38.032,48.117c-0.476-0.436-1.216-0.402-1.651,0.074  c-0.435,0.477-0.402,1.216,0.074,1.651l10.608,9.694c0.002,0.002,0.005,0.004,0.007,0.006c0.316,0.289,0.501,0.687,0.521,1.12  c0.01,0.213-0.022,0.422-0.091,0.616c-0.001,0.002-0.001,0.004-0.002,0.006c-0.071,0.198-0.18,0.382-0.326,0.541  c-0.601,0.658-1.625,0.704-2.282,0.103l-1.663-1.52c-0.004-0.004-0.008-0.008-0.012-0.011L40.211,57.652z M63.736,77.156  c-0.157-0.144-0.35-0.241-0.559-0.283l-5.719-1.146L45.314,64.628c0.216,0.036,0.436,0.057,0.66,0.057  c0.061,0,0.122-0.001,0.183-0.004c1.026-0.046,1.972-0.479,2.676-1.215l3.233,2.954c0.224,0.205,0.507,0.306,0.788,0.306  c0.317,0,0.633-0.128,0.863-0.38c0.435-0.477,0.402-1.216-0.074-1.651l-1.693-1.547c0.275,0.046,0.557,0.066,0.842,0.053  c1.026-0.046,1.972-0.479,2.676-1.215l0.355,0.324c0.224,0.205,0.507,0.306,0.788,0.306c0.317,0,0.633-0.128,0.863-0.38  c0.435-0.477,0.402-1.216-0.074-1.651l-0.871-0.796c0.167-1.242-0.254-2.544-1.247-3.451l-0.78-0.712  c0.478-0.206,0.911-0.511,1.28-0.896l3.798,3.471c0.224,0.205,0.507,0.306,0.788,0.306c0.317,0,0.633-0.128,0.863-0.38  c0.205-0.224,0.306-0.507,0.306-0.789c0-0.317-0.128-0.632-0.38-0.863l-4.316-3.944c0.031-0.233,0.044-0.47,0.033-0.71  c-0.048-1.057-0.502-2.031-1.279-2.741l-4.526-4.136c0.608-0.594,1.583-0.619,2.218-0.039L66.512,56.99l0.78,3.355  c-2.566,3.338-1.938,8.403,1.545,11.586c0.224,0.205,0.507,0.306,0.788,0.306c0.317,0,0.633-0.128,0.863-0.38  c0.435-0.477,0.402-1.216-0.074-1.651c-2.705-2.472-3.148-6.406-0.989-8.769c0.26-0.284,0.363-0.678,0.276-1.053l-0.99-4.262  c-0.002-0.01-0.004-0.02-0.007-0.029l-1.876-8.073c-0.292-1.257,0.493-2.518,1.75-2.81c1.256-0.291,2.518,0.493,2.81,1.75  l4.191,18.039c0.054,0.23,0.176,0.439,0.35,0.598l5.479,5.007l-11.305,12.37L63.736,77.156z M74.162,90.18l-4.075-3.724  l14.787-16.181l4.075,3.724L74.162,90.18z"/>
</svg>