<svg xmlns="http://www.w3.org/2000/svg" xmlns:xlink="http://www.w3.org/1999/xlink" version="1.1" x="0px" y="0px" viewBox="0 0 496 480" style="enable-background:new 0 0 496 384;" xml:space="preserve" fill="#FFF">
  <g>
    <path d="M248,128c-13.233,0-24,10.766-24,24s10.767,24,24,24s24-10.766,24-24S261.233,128,248,128z M248,160c-4.411,0-8-3.589-8-8   s3.589-8,8-8s8,3.589,8,8S252.411,160,248,160z"/>
    <path d="M445.145,68.507l-24.026-30.579C410.168,23.993,393.723,16,376,16c-13.869,0-25.702,8.871-30.132,21.236   c-4.257-1.232-8.626-1.918-13.024-2.052C325.324,14.451,305.227,0,282.745,0C269.854,0,257.66,4.551,248,12.892   C238.34,4.551,226.146,0,213.255,0c-23.032,0-42.69,14.699-50.101,35.207c-4.368,0.135-8.694,0.81-12.892,2.008   c-1.547-4.462-4.097-8.549-7.543-11.978C136.731,19.28,128.749,16,120.24,16h-0.961c-17.287,0-33.325,7.797-44.001,21.391   L50.845,68.5C18.057,110.244,0,162.466,0,215.548v53.785c0,29.234,9.66,58.213,27.199,81.6C42.729,371.639,67.451,384,93.333,384   C138.916,384,176,346.916,176,301.333v-14.154c3.242,2.933,6.945,5.763,11.132,8.464c9.94,6.414,20.875,9.515,31.517,9.515   c11.732-0.001,23.094-3.791,32.37-11.05C260.761,300.518,272.239,304,284,304c13.25,0,25.785-4.289,36-11.966v9.299   C320,346.916,357.084,384,402.667,384c25.882,0,50.604-12.361,66.134-33.067C486.34,327.547,496,298.567,496,269.333v-53.785   C496,162.467,477.939,110.247,445.145,68.507z M376,32c12.781,0,24.641,5.764,32.537,15.814l0.991,1.261   c-8.695,2.939-19.546,2.882-30.133-0.398c-6.408-1.986-12.241-5.002-17.149-8.811C365.037,35.166,370.149,32,376,32z    M378.337,181.74c-0.358-0.532-0.724-1.059-1.102-1.579c-8.362-11.508-20.705-19.072-34.754-21.296l-39.034-6.182   c0.616-3.385,0.712-6.88,0.259-10.371l38.068-12.369l-4.943-15.217l-38.885,12.634c-4.947-7.099-12.466-11.987-21.012-13.471   c-0.104-0.206-0.224-0.4-0.333-0.603l21.381-41.759c4.518-8.866,12.217-15.443,21.681-18.518   c8.229-2.673,16.915-2.417,24.868,0.656c0.886,4.881,2.884,9.553,5.869,13.534l24,32C385.749,114.333,392,133.084,392,152   l0.013,0.453C392.603,162.864,387.292,173.886,378.337,181.74z M281.079,160.591l-4.573,3.403l1.725,5.434   c2.273,7.165-0.174,14.938-6.09,19.341c-5.792,4.312-13.574,4.313-19.362,0.002L248,185.214l-4.778,3.558   c-5.787,4.312-13.568,4.311-19.363-0.002c-5.915-4.403-8.362-12.176-6.089-19.341l1.725-5.434l-4.573-3.403   c-5.913-4.401-8.358-12.174-6.085-19.343c2.245-7.08,8.58-11.835,15.766-11.835c0,0,0.001,0,0.002,0l5.857,0.001l1.77-5.584   C234.474,116.754,240.811,112,248,112s13.526,4.754,15.77,11.831l1.77,5.584l5.857-0.001c0.001,0,0.002,0,0.002,0   c7.186,0,13.521,4.756,15.766,11.835C289.438,148.418,286.992,156.191,281.079,160.591z M213.255,16   c9.95,0,19.307,3.875,26.343,10.912L248,35.314l8.401-8.402C263.438,19.875,272.795,16,282.745,16   c14.502,0,27.58,8.591,33.655,21.292c-0.562,0.163-1.124,0.32-1.683,0.501c-13.528,4.396-24.535,13.797-30.985,26.457   l-18.737,36.594c-2.766-1.718-5.798-3.002-8.996-3.821V56h-16v41.024c-8.556,2.191-15.875,7.828-20.269,15.661l-32.82-33.088   C179.875,72.562,176,63.207,176,53.255C176,32.712,192.713,16,213.255,16z M175.575,90.889l29.156,29.394   c-2.545,1.993-4.794,4.376-6.677,7.077l-38.885-12.634l-4.943,15.217l38.068,12.369c-1.188,9.163,1.431,18.37,7.172,25.439   l-36.807,18.755c-3.214-1.6-6.832-2.505-10.659-2.505c-8.383,0-16.34,1.851-23.486,5.167l-3.989-2.474l-0.15-0.091   c-12.919-7.625-21.112-21.348-20.387-34.148L104,152c0-18.916,6.251-37.667,17.601-52.8l24.003-32.003   c2.98-3.974,4.976-8.637,5.864-13.511c2.775-1.07,5.649-1.814,8.577-2.194c-0.019,0.587-0.045,1.172-0.045,1.764   C160,67.48,165.54,80.854,175.575,90.889z M144,200.805c2.586-0.527,5.261-0.805,8-0.805c4.411,0,8,3.588,8,8v38.624   c-9.311-3.302-16-12.195-16-22.624V200.805z M119.279,32h0.961c4.25,0,8.226,1.626,11.193,4.579   c0.967,0.962,1.776,2.038,2.447,3.185c-4.935,3.856-10.812,6.91-17.277,8.913c-10.595,3.283-21.454,3.338-30.152,0.392l1.409-1.794   C95.484,37.567,106.936,32,119.279,32z M93.333,368c-20.872,0-40.81-9.969-53.333-26.667c-15.477-20.635-24-46.206-24-72v-53.785   c0-49.514,16.843-98.228,47.427-137.166l12.74-16.22c7.141,3.36,15.373,5.078,24.041,5.078c6.881,0,14.035-1.082,21.132-3.28   c3.274-1.014,6.426-2.267,9.459-3.692L108.8,89.6c-13.368,17.825-20.751,39.9-20.8,62.18c-0.927,18.027,9.168,36.254,25.943,47.175   C102.912,209.189,96,223.803,96,240.001v33.371c0,12.455-4.85,24.164-13.657,32.97l11.314,11.314   C105.485,305.829,112,290.102,112,273.373v-33.371c0-13.058,6.291-24.674,16-31.979V224c0,19.317,13.765,35.479,32,39.195v38.138   C160,338.093,130.094,368,93.333,368z M195.806,282.199C186.771,276.369,176,267.092,176,256v-48c0-3.321-0.679-6.486-1.904-9.365   l28.202-14.37c1.063,3.64,2.738,7.085,4.974,10.182l-22.172,30.517l12.943,9.404l21.5-29.593   c9.017,4.391,19.491,4.334,28.456-0.209c0.081,0.041,0.164,0.075,0.244,0.115l6.621,41.8c1.556,9.829-0.808,19.676-6.656,27.726   C236.419,290.432,213.892,293.867,195.806,282.199z M284,288c-7.706,0-15.248-2.034-21.862-5.818   c7.628-11.234,10.663-24.727,8.53-38.204l-5.71-36.048c3.942-0.311,7.835-1.378,11.494-3.16l21.504,29.597l12.943-9.404   l-22.172-30.517c5.074-7.023,7.279-15.855,5.972-24.6c0.638-0.662,1.234-1.355,1.81-2.063l43.469,6.885   c8.775,1.39,16.594,5.765,22.333,12.417C356.571,185.091,350.412,184,344,184c-13.233,0-24,10.767-24,24v61.281   C311.745,281.036,298.454,288,284,288z M352,200.805V224c0,10.429-6.689,19.321-16,22.624V208c0-4.411,3.589-8,8-8   C346.739,200,349.414,200.278,352,200.805z M480,269.333c0,25.794-8.523,51.365-24,72C443.477,358.031,423.539,368,402.667,368   C365.906,368,336,338.093,336,301.333v-38.138c18.235-3.716,32-19.878,32-39.195v-15.978c9.709,7.305,16,18.92,16,31.978v33.373   c0,16.729,6.515,32.456,18.343,44.285l11.314-11.314C404.85,297.537,400,285.828,400,273.373V240   c0-13.674-4.94-26.208-13.112-35.943c-0.35-2.499-0.875-4.965-1.574-7.38c14.81-11.07,23.551-28.07,22.686-44.897   c-0.049-22.28-7.432-44.355-20.8-62.18l-22-29.333c3.033,1.425,6.185,2.678,9.459,3.692c7.098,2.199,14.25,3.28,21.133,3.28   c8.659,0,16.888-1.715,24.025-5.07l12.746,16.222C463.153,117.326,480,166.035,480,215.548V269.333z"/>
  </g>
</svg>