<svg xmlns="http://www.w3.org/2000/svg" viewBox="0 0 96 120" x="0px" y="0px" fill="#FFF">
  <g data-name="1">
    <path
      d="M78.09,49.66V17.26a2,2,0,0,0-2-2H35.89a2,2,0,0,0-2,2V45.89H26.18V38.71a2,2,0,0,0-2-2H9.08a2,2,0,0,0-2,2v40a2,2,0,0,0,2,2h15.1a2,2,0,0,0,2-2V74.55a17,17,0,0,0,13.06,6.19h12.1A16.94,16.94,0,0,0,58.77,79L83.83,66.75a9.09,9.09,0,0,0-5.74-17.09Zm-16.6-30.4V29l-4.6-2.33a2,2,0,0,0-.9-.22,2.1,2.1,0,0,0-.91.22L50.49,29V19.26Zm-23.6,0h8.6v13A2,2,0,0,0,47.44,34a2,2,0,0,0,2,.08L56,30.69,62.58,34a2.09,2.09,0,0,0,.91.21,2,2,0,0,0,2-2v-13h8.6V51.07L57.71,57.5A14.46,14.46,0,0,0,43.55,45.89H37.89ZM22.18,76.74H11.08v-36h11.1ZM84.72,60a5,5,0,0,1-2.65,3.16L57,75.43a12.92,12.92,0,0,1-5.67,1.31H39.24a13,13,0,0,1-11-6.18l-2.06-3.38V49.89H43.55A10.47,10.47,0,0,1,53.8,58.33H46.42a2,2,0,0,0,0,4h9.67a2.48,2.48,0,0,0,.27,0,1.41,1.41,0,0,0,.22-.06l.14,0L78,53.84a5.09,5.09,0,0,1,6.2,2.08A5,5,0,0,1,84.72,60Z" />
  </g>
</svg>